<?xml version="1.0" standalone="no"?>
<!DOCTYPE svg PUBLIC "-//W3C//DTD SVG 20010904//EN"
 "http://www.w3.org/TR/2001/REC-SVG-20010904/DTD/svg10.dtd">
<svg version="1.0" xmlns="http://www.w3.org/2000/svg"
 width="1017.000000pt" height="1017.000000pt" viewBox="0 0 1017.000000 1017.000000"
 preserveAspectRatio="xMidYMid meet">

<g transform="translate(0.000000,1017.000000) scale(0.100000,-0.100000)"
fill="#000000" stroke="none">
<path d="M4970 9259 c-52 -40 -165 -127 -250 -194 -85 -66 -184 -143 -220
-170 -36 -27 -99 -77 -140 -110 -41 -34 -129 -102 -195 -152 -66 -50 -133
-105 -150 -122 l-30 -32 -3 -274 -3 -275 -106 5 c-58 3 -107 6 -109 8 -4 4
-12 105 -13 170 -1 47 -5 62 -26 82 l-24 25 -533 0 c-403 -1 -537 -4 -549 -13
-36 -28 -39 -52 -39 -320 l0 -265 -47 -20 c-27 -11 -61 -24 -78 -28 -86 -20
-169 -86 -213 -169 l-27 -50 -5 -525 c-3 -289 -7 -526 -8 -527 -1 -2 -26 -3
-55 -3 -114 0 -215 -85 -225 -188 -6 -65 10 -111 70 -200 33 -49 45 -74 36
-77 -7 -2 -102 -6 -210 -7 -182 -3 -199 -5 -225 -24 -46 -34 -66 -80 -67 -148
-1 -78 23 -123 84 -153 44 -23 48 -23 476 -23 480 0 444 6 444 -70 0 -25 -5
-40 -16 -44 -9 -3 -125 -6 -259 -6 l-244 0 -20 -26 c-27 -34 -26 -40 4 -69
l24 -25 254 0 c284 0 267 4 267 -71 0 -52 -19 -59 -167 -59 -125 0 -171 -13
-199 -55 -13 -20 -25 -23 -112 -27 -81 -3 -107 -8 -154 -31 -104 -51 -178
-165 -198 -305 -12 -86 -4 -930 10 -1002 21 -112 106 -227 196 -265 25 -11 82
-19 157 -22 97 -5 120 -9 127 -23 5 -10 9 -331 10 -758 0 -517 4 -749 11 -766
21 -46 78 -55 99 -15 6 11 10 303 10 773 0 415 3 761 6 770 6 14 87 16 819 16
448 0 816 -3 818 -7 3 -5 6 -378 8 -831 4 -723 2 -824 -11 -832 -9 -6 -264
-10 -643 -10 -614 0 -627 0 -647 -20 -25 -25 -25 -41 1 -74 l20 -26 502 0 502
0 96 -99 c79 -83 125 -119 275 -216 98 -65 249 -164 334 -220 499 -330 638
-419 662 -429 21 -8 35 -6 61 6 18 9 209 132 423 273 214 142 473 313 575 381
152 100 201 139 267 209 57 62 88 87 109 90 15 2 234 4 486 4 443 1 458 2 477
21 25 25 25 55 0 80 -20 20 -33 20 -572 20 l-553 0 0 78 c-1 88 -15 124 -76
187 l-39 41 2 684 3 685 805 0 805 0 5 -771 c4 -633 7 -774 19 -787 19 -23 64
-21 87 4 18 20 19 52 24 788 l5 766 175 5 c144 4 181 9 211 24 48 24 86 86 94
150 4 28 5 326 3 661 l-3 610 -30 60 c-21 42 -43 69 -73 90 -43 29 -47 30
-182 33 -134 4 -140 5 -155 28 -35 53 -55 58 -259 64 l-191 5 -3 34 c-2 19 -1
44 2 57 l6 24 291 0 290 0 24 25 c30 29 31 49 5 75 -18 18 -33 20 -137 20 -75
0 -127 5 -143 13 -33 17 -38 57 -9 83 20 18 40 19 303 21 154 2 295 5 313 8
138 24 167 239 44 322 -37 25 -50 27 -221 25 -63 -1 -134 1 -157 4 l-43 5 15
27 c9 15 31 52 50 82 52 81 60 119 40 188 -29 100 -114 162 -222 162 l-42 0
-3 538 c-3 529 -3 538 -25 577 -50 93 -149 159 -260 173 -48 6 -58 10 -58 26
0 14 10 22 35 29 44 11 47 17 55 93 19 171 -66 284 -214 284 l-60 0 -6 43
c-16 105 -109 205 -211 228 -65 15 -145 5 -203 -24 l-44 -23 -31 28 c-108 99
-272 96 -393 -6 -40 -34 -80 -115 -88 -182 -6 -47 -9 -52 -35 -58 -16 -3 -53
-28 -82 -56 -29 -28 -59 -48 -66 -45 -8 3 -29 5 -48 5 l-34 0 0 260 c0 208 -3
267 -14 289 -8 15 -49 54 -92 87 -100 77 -108 83 -330 255 -181 140 -359 280
-528 412 -106 84 -127 97 -156 97 -16 0 -61 -26 -120 -71z m181 -87 c47 -39
171 -138 409 -327 21 -16 61 -48 90 -70 28 -22 63 -50 78 -62 l26 -22 -24 -26
c-13 -14 -31 -25 -40 -25 -16 0 -94 57 -290 212 -179 142 -266 208 -287 219
-19 10 -28 8 -60 -13 -39 -26 -343 -257 -448 -341 -33 -27 -73 -55 -89 -64
-28 -14 -30 -14 -59 15 -27 27 -29 33 -16 48 17 21 638 504 647 504 4 0 32
-22 63 -48z m163 -388 c121 -97 236 -188 255 -203 l34 -26 -22 -43 -22 -43
-77 56 c-142 103 -164 120 -261 197 -53 43 -106 80 -118 84 -21 6 -64 -24
-472 -323 -14 -11 -19 -6 -38 32 l-22 45 92 75 c204 165 410 325 419 325 6 0
110 -79 232 -176z m170 -403 c25 -18 46 -37 46 -41 0 -5 -13 -18 -29 -29 l-29
-21 -68 32 c-59 27 -80 32 -144 31 -150 -2 -253 -81 -295 -228 -38 -131 0
-273 100 -370 131 -128 313 -167 475 -101 33 14 60 22 60 18 0 -18 -45 -77
-91 -121 -64 -61 -148 -104 -264 -136 -109 -30 -158 -31 -261 -5 -207 53 -376
221 -440 435 -27 92 -23 221 10 318 55 163 132 248 377 415 l162 110 172 -137
c95 -75 194 -151 219 -170z m-1109 218 c16 -17 51 -47 77 -66 37 -28 51 -48
68 -95 l22 -60 -36 -71 c-67 -138 -79 -234 -63 -514 7 -131 17 -173 62 -268
42 -89 130 -180 228 -235 l72 -41 -3 -292 c-2 -160 -6 -294 -9 -297 -2 -3
-157 -5 -344 -5 l-339 0 -1 140 c0 77 -2 471 -4 875 -2 404 -1 750 3 768 6 26
27 47 112 112 58 44 110 80 115 79 6 0 23 -13 40 -30z m1601 -75 l104 -76 0
-894 0 -894 -237 -1 c-131 0 -286 -1 -345 -2 l-106 -2 -4 305 c-2 254 -6 310
-19 336 l-16 30 86 44 c64 33 106 64 161 120 86 85 123 153 146 263 20 97 16
128 -19 140 -24 8 -34 3 -90 -44 -34 -29 -90 -65 -123 -81 -155 -73 -337 -10
-411 139 -54 113 -23 241 75 304 41 27 53 30 100 26 32 -4 72 -17 106 -36 59
-34 87 -38 105 -17 7 8 50 40 96 71 47 31 85 60 86 63 0 4 2 39 3 77 1 39 8
79 15 90 12 19 71 64 96 74 6 2 21 12 34 22 13 11 30 19 38 19 8 0 62 -34 119
-76z m893 -322 c39 -32 41 -42 22 -122 -6 -25 -7 -73 -4 -107 l6 -63 63 0 c59
0 79 9 54 25 -5 3 -14 24 -20 45 -21 77 19 157 94 191 79 36 169 13 221 -55
23 -31 28 -48 33 -121 l5 -85 107 0 c105 0 109 -1 139 -29 28 -26 31 -35 31
-85 l0 -56 -612 2 -613 3 2 57 c3 88 40 129 129 144 l39 6 0 72 c0 63 4 79 30
121 43 69 100 98 179 92 45 -4 66 -12 95 -35z m-3401 -529 c2 -434 1 -453 -17
-462 -10 -6 -76 -31 -147 -56 -71 -26 -157 -57 -192 -71 -34 -13 -67 -24 -73
-24 -6 0 -81 42 -167 93 -87 52 -165 97 -174 100 -17 6 -18 35 -18 420 0 434
1 441 44 449 11 1 182 3 380 3 l361 0 3 -452z m177 437 c3 -6 6 -193 5 -417
-1 -431 0 -423 -47 -423 l-23 0 -1 383 c0 210 -2 401 -5 425 l-6 42 35 0 c20
0 39 -5 42 -10z m335 -869 l0 -579 -53 -4 -54 -3 4 235 c4 215 -6 422 -20 436
-3 4 -26 9 -52 11 l-45 6 0 232 c0 177 3 235 13 238 6 3 56 6 110 6 l97 1 0
-579z m2322 509 c9 -121 -53 -110 630 -110 l588 0 0 -24 c0 -18 -7 -25 -31
-30 -17 -3 -257 -6 -533 -6 -276 1 -510 -2 -519 -6 -19 -7 -81 -130 -92 -181
-4 -21 -1 -42 9 -62 13 -25 16 -70 16 -253 0 -123 -6 -270 -12 -326 l-13 -104
-35 6 c-19 3 -49 6 -66 6 l-31 0 4 568 c3 312 6 573 8 580 3 6 20 12 38 12
l34 0 5 -70z m-3722 -307 c0 -32 3 -68 6 -80 5 -18 1 -23 -19 -29 -37 -9 -40
-44 -35 -379 5 -338 1 -325 108 -325 l66 0 -4 -35 c-6 -52 15 -57 246 -50 108
3 213 3 234 0 35 -6 38 -9 38 -41 l0 -34 -234 0 c-147 0 -246 -4 -267 -11 -42
-14 -82 -51 -117 -106 -31 -49 -45 -53 -177 -53 l-93 0 -5 28 c-3 15 -5 248
-4 517 2 470 3 491 22 524 25 42 102 96 164 115 71 22 71 22 71 -41z m4878 31
c46 -5 52 -8 52 -28 0 -19 -7 -25 -38 -30 -48 -7 -1022 -8 -1022 0 0 3 8 19
17 35 16 26 22 28 87 31 111 5 845 -2 904 -8z m288 -18 c29 -13 61 -38 75 -57
l24 -34 3 -526 c2 -497 2 -527 -15 -531 -30 -8 -170 -10 -217 -3 -38 6 -45 11
-49 35 -7 35 -50 86 -91 108 -28 15 -99 16 -875 15 l-844 -2 -28 -27 c-16 -15
-31 -36 -35 -46 -5 -17 -9 -16 -44 12 -79 62 -64 61 -744 61 -708 0 -648 8
-700 -94 -34 -69 -57 -74 -85 -19 -29 56 -80 99 -131 111 -25 6 -173 11 -337
11 l-293 0 0 35 c0 20 5 36 13 37 14 2 -8 2 2390 6 1786 2 1827 2 1846 21 18
18 19 33 14 328 -3 169 -2 370 2 446 l7 137 32 0 c17 0 54 -11 82 -24z m-749
-159 c7 -7 12 -100 12 -234 1 -124 4 -154 17 -167 13 -13 44 -16 187 -16 95 0
179 5 187 10 12 8 16 45 19 210 l3 200 43 0 43 0 1 -235 1 -235 -207 0 c-115
0 -351 -2 -526 -3 l-317 -2 0 25 c-1 14 -3 116 -6 227 -4 112 -4 209 -1 215 3
10 65 12 273 10 148 -2 270 -4 271 -5z m318 -19 c3 -13 4 -43 1 -68 l-4 -45
-106 -3 -106 -3 0 71 0 70 105 0 c100 0 105 -1 110 -22z m-2094 -42 l39 -26 0
-275 0 -275 -97 -1 c-54 0 -133 -3 -175 -5 l-78 -5 0 252 c0 244 1 254 22 285
40 59 104 85 191 80 41 -3 70 -12 98 -30z m-1451 -251 l0 -245 -565 0 -565 1
0 39 c0 46 -42 27 390 174 276 94 644 232 697 260 15 8 31 15 36 16 4 0 7
-110 7 -245z m-1015 125 c116 -68 137 -86 114 -101 -16 -10 -221 -80 -225 -76
-5 5 -10 227 -6 232 8 8 8 8 117 -55z m4570 -49 c3 -6 3 -28 -1 -50 l-7 -41
-108 0 -108 0 -7 35 c-11 62 -7 65 115 65 60 0 112 -4 116 -9z m13 -337 l182
-7 0 -29 0 -28 -509 0 c-280 0 -523 -3 -540 -6 -31 -6 -31 -6 -31 34 l0 41
358 1 c196 0 439 -3 540 -6z m-4263 -370 c13 -3 63 -67 129 -165 60 -87 112
-159 117 -159 5 0 51 64 104 143 52 78 101 151 110 161 13 17 28 19 167 18 84
0 168 -1 186 -1 l32 -1 0 -182 c0 -101 5 -201 10 -223 6 -25 5 -44 0 -49 -6
-6 -10 -183 -10 -443 l0 -433 -22 -5 c-13 -3 -90 -4 -172 -3 l-150 3 -8 30
c-4 17 -8 158 -8 315 0 157 0 289 0 294 0 16 -37 -38 -124 -184 -48 -80 -93
-151 -100 -158 -15 -15 -22 -4 -147 208 -40 69 -79 132 -86 140 -11 12 -13
-40 -13 -307 0 -261 -3 -323 -14 -332 -9 -8 -65 -11 -177 -9 l-164 3 -3 667
-2 667 22 4 c34 6 300 7 323 1z m1633 -7 c9 -6 12 -108 12 -453 0 -366 3 -451
14 -479 l15 -35 123 0 c83 0 128 4 136 12 9 9 12 130 12 483 l0 472 139 6 c76
3 164 3 195 0 l56 -6 2 -481 3 -481 168 -3 167 -2 -2 -183 -3 -182 -570 0
-570 0 -55 26 c-112 52 -195 164 -219 293 -17 90 -15 1013 2 1020 19 8 360 2
375 -7z m2070 3 c9 0 12 -37 12 -149 0 -127 -2 -150 -16 -155 -9 -3 -78 -6
-154 -6 -122 0 -139 -2 -145 -17 -3 -10 -5 -238 -4 -506 1 -304 -2 -492 -8
-498 -6 -6 -79 -8 -179 -7 l-169 3 -6 65 c-4 36 -7 268 -8 515 l-1 450 -152 0
-153 0 -3 149 c-1 85 1 152 7 155 6 4 696 5 979 1z m515 1 l47 -1 0 -665 0
-665 -22 -5 c-13 -3 -90 -4 -173 -3 l-150 3 -7 45 c-3 25 -7 325 -7 667 l-1
622 23 3 c19 3 115 2 290 -1z m-5076 -196 c33 -33 35 -39 30 -83 -4 -37 -12
-52 -38 -74 -49 -41 -100 -39 -145 6 -28 28 -34 42 -34 76 0 34 6 48 34 76 28
28 42 34 76 34 35 0 48 -6 77 -35z m5896 -5 c78 -87 -22 -217 -129 -166 -76
36 -70 163 10 197 37 15 89 2 119 -31z m-5583 -35 l0 -55 -45 0 c-32 0 -51 -6
-65 -20 -23 -23 -24 -30 -8 -65 10 -22 17 -25 65 -25 l54 0 -3 -57 -3 -58
-105 -3 c-97 -3 -106 -1 -122 19 -24 29 -23 43 11 90 35 48 54 126 45 186 l-6
43 91 0 91 0 0 -55z m5286 -27 c-1 -77 10 -108 57 -162 24 -28 25 -46 4 -73
-7 -9 -50 -13 -153 -13 l-144 0 0 50 0 50 84 0 c99 0 122 13 112 64 -4 17 -11
35 -16 40 -6 6 -50 13 -98 16 l-87 5 -1 48 -2 47 122 0 122 0 0 -72z m-5288
-427 c2 -26 -1 -47 -8 -51 -7 -4 -171 -8 -365 -9 l-354 -2 -16 24 c-17 27 -8
70 17 80 7 3 173 5 368 4 l355 -2 3 -44z m5853 22 c7 -17 7 -38 2 -53 -8 -24
-13 -25 -93 -28 -47 -1 -226 1 -397 4 l-313 6 0 44 0 43 143 3 c78 2 256 4
395 6 l252 3 11 -28z m-663 -219 c24 -17 30 -65 10 -81 -18 -14 -85 -23 -119
-16 -27 5 -29 9 -29 53 0 25 3 50 7 53 13 13 109 7 131 -9z m-5247 -566 c61
-27 116 -84 139 -144 16 -43 20 -78 20 -169 l0 -115 -119 0 -118 0 -7 46 c-3
26 -6 60 -6 75 0 53 -29 69 -123 69 -131 0 -122 29 -122 -404 0 -438 -6 -416
111 -416 70 0 78 2 105 29 24 25 29 38 29 79 l0 49 46 7 c59 8 152 8 182 0 21
-6 22 -11 22 -108 0 -128 -17 -189 -70 -248 -64 -74 -107 -87 -296 -89 -93 -1
-176 3 -200 10 -83 23 -159 97 -195 191 -18 47 -19 80 -19 498 l0 447 24 50
c39 82 100 134 183 155 64 15 372 7 414 -12z m947 -6 c65 -35 117 -87 143
-145 l24 -52 0 -460 c0 -450 0 -461 -22 -507 -11 -25 -40 -66 -62 -91 -64 -69
-110 -79 -328 -75 -172 3 -179 4 -224 30 -61 36 -112 94 -135 154 -18 45 -19
82 -19 504 0 453 0 455 23 501 39 80 109 140 187 160 17 5 107 7 200 6 154 -3
174 -5 213 -25z m772 -165 c69 -102 127 -187 130 -187 3 0 57 77 120 170 63
94 122 178 132 186 13 13 46 16 160 18 79 1 150 0 158 -2 13 -3 15 -83 12
-664 -2 -461 -6 -666 -14 -675 -8 -10 -46 -13 -144 -13 -122 0 -134 2 -144 19
-6 13 -10 140 -10 345 0 179 -4 327 -9 330 -10 6 -54 -60 -156 -234 -38 -63
-75 -123 -83 -132 -17 -20 -19 -17 -147 205 -70 122 -100 166 -108 157 -3 -3
-8 -156 -12 -340 -4 -184 -9 -338 -12 -342 -2 -5 -74 -8 -159 -8 l-154 0 0
638 c0 350 -3 654 -6 674 -6 37 -6 37 32 40 22 2 95 3 164 2 l125 0 125 -187z
m1497 179 c4 -4 -1 -14 -11 -22 -16 -11 -19 -27 -20 -86 0 -40 4 -90 8 -110
l9 -38 -167 0 -166 0 0 -114 c0 -67 -4 -117 -10 -121 -29 -18 17 -25 170 -25
139 0 169 -3 174 -15 3 -8 -2 -18 -11 -23 -12 -7 -15 -24 -12 -91 3 -54 9 -85
18 -90 7 -5 11 -17 9 -27 -3 -18 -16 -19 -171 -22 l-167 -2 -1 -93 c0 -50 -2
-111 -4 -134 l-3 -43 163 0 c132 0 165 -3 175 -15 10 -12 10 -18 0 -30 -19
-23 -10 -168 13 -193 10 -11 15 -26 11 -36 -5 -14 -38 -16 -315 -16 l-308 0
-6 33 c-3 17 -4 320 -3 672 l3 640 240 6 c292 7 371 6 382 -5z m786 -18 c60
-26 120 -93 138 -155 10 -33 14 -101 13 -218 0 -204 -13 -252 -80 -323 -24
-25 -44 -50 -44 -55 0 -21 165 -472 208 -569 2 -5 -66 -8 -151 -8 l-155 0 -21
49 c-11 27 -51 151 -88 275 l-68 226 -49 0 -49 0 5 -253 c3 -140 1 -263 -3
-275 -8 -21 -14 -22 -132 -22 l-124 0 -7 31 c-3 17 -6 321 -6 675 0 591 1 643
17 646 9 2 136 1 282 0 242 -3 270 -6 314 -24z m917 5 c61 -27 106 -76 130
-141 17 -45 20 -74 18 -166 l-3 -111 -112 -3 -113 -3 0 76 c0 106 -12 117
-128 113 l-87 -3 -13 -40 c-10 -30 -12 -123 -10 -393 3 -410 -4 -382 109 -382
90 0 114 18 122 96 3 31 11 60 17 64 18 11 209 10 216 -1 12 -19 3 -217 -11
-266 -19 -65 -68 -121 -129 -149 -47 -22 -64 -24 -207 -24 -192 0 -232 11
-304 84 -90 92 -90 90 -90 611 l0 450 24 52 c13 29 41 69 63 88 71 65 114 75
308 71 131 -2 162 -5 200 -23z m883 18 c13 -2 7 -31 -7 -31 -21 0 -32 -117
-16 -165 21 -63 18 -64 -147 -67 l-148 -3 -3 -117 c-2 -72 -7 -118 -13 -118
-6 0 -7 -4 -4 -10 4 -6 67 -10 156 -10 126 0 151 -2 156 -15 3 -9 -2 -22 -12
-29 -15 -11 -17 -23 -13 -79 3 -38 13 -78 23 -93 30 -46 10 -53 -149 -56
l-141 -3 -3 -132 -3 -133 154 0 c164 0 185 -6 165 -43 -13 -25 -5 -151 12
-189 27 -58 29 -58 -294 -58 l-294 0 -6 23 c-3 12 -6 313 -6 669 0 571 2 648
15 656 12 6 538 9 578 3z m-2192 -1528 c5 -69 -4 -1319 -9 -1324 -4 -3 -26
-11 -50 -18 -47 -13 -111 -65 -141 -114 -77 -128 -20 -340 106 -393 30 -13 37
-12 90 16 45 24 76 32 142 37 80 6 83 5 73 -13 -18 -32 -84 -90 -157 -136
-217 -138 -741 -486 -795 -528 -52 -40 -230 -150 -244 -150 -6 0 -96 56 -201
124 -104 69 -264 173 -355 232 -608 397 -630 413 -630 458 0 39 91 30 152 -15
126 -91 279 47 219 198 -19 49 -19 50 0 79 11 16 26 52 35 80 18 62 7 128 -32
187 -30 46 -107 97 -146 97 l-28 0 0 581 c0 381 4 587 10 600 10 19 32 19 985
19 921 0 975 -1 976 -17z m-1905 -1315 c12 -10 26 -36 33 -58 20 -67 -21 -140
-78 -140 -20 0 -21 5 -21 116 0 115 0 115 23 109 12 -4 31 -16 43 -27z m2002
-134 c36 -23 62 -74 62 -121 0 -90 -37 -121 -156 -130 -68 -5 -77 -4 -99 17
-49 46 -53 136 -9 199 39 56 143 74 202 35z m-2014 -176 c23 -32 21 -90 -4
-105 -16 -11 -21 -9 -35 9 -8 13 -15 43 -15 70 0 41 3 48 19 48 11 0 27 -10
35 -22z"/>
<path d="M4236 8365 c-10 -10 -16 -33 -16 -61 0 -56 28 -89 68 -79 37 9 43 21
40 90 l-3 60 -36 3 c-24 2 -42 -3 -53 -13z"/>
<path d="M4242 8074 c-27 -18 -29 -55 -4 -77 24 -22 45 -21 65 1 22 24 21 55
-1 75 -23 21 -32 21 -60 1z"/>
<path d="M4235 7880 c-23 -26 -13 -68 19 -76 52 -13 93 40 60 77 -22 24 -56
24 -79 -1z"/>
<path d="M4242 7664 c-41 -28 -16 -94 36 -94 21 0 52 34 52 57 0 17 -36 53
-53 53 -7 0 -23 -7 -35 -16z"/>
<path d="M4231 7381 c-14 -25 -14 -87 -1 -112 13 -23 71 -26 89 -5 7 9 11 38
9 73 l-3 58 -42 3 c-33 2 -44 -1 -52 -17z"/>
<path d="M4386 7120 c-53 -55 -96 -105 -96 -111 0 -7 25 -9 70 -7 61 3 70 1
70 -14 0 -15 9 -18 55 -18 46 0 55 3 55 18 0 15 9 17 70 14 38 -2 70 0 70 5 0
11 -151 180 -178 199 -18 13 -27 6 -116 -86z"/>
<path d="M4384 6871 c-53 -24 -97 -80 -92 -118 5 -42 37 -41 93 1 71 54 141
50 208 -12 23 -22 31 -24 55 -16 34 12 33 43 -3 90 -53 69 -173 95 -261 55z"/>
<path d="M5859 8364 c-21 -26 -17 -113 6 -130 41 -30 78 -9 89 51 10 51 -11
89 -50 93 -20 2 -36 -3 -45 -14z"/>
<path d="M5648 8113 c-10 -3 -21 -16 -25 -30 -8 -34 29 -68 57 -53 21 11 35
44 25 60 -10 16 -38 27 -57 23z"/>
<path d="M5866 8064 c-9 -8 -16 -22 -16 -30 0 -55 66 -75 96 -29 15 23 15 27
0 50 -19 29 -56 33 -80 9z"/>
<path d="M5870 7830 c-26 -26 -23 -47 13 -74 l27 -20 26 25 c22 23 24 28 13
52 -7 15 -16 27 -20 27 -4 0 -14 3 -22 6 -9 3 -25 -4 -37 -16z"/>
<path d="M5868 7659 c-21 -12 -24 -69 -6 -87 7 -7 24 -12 38 -12 14 0 31 5 38
12 20 20 14 65 -10 82 -26 18 -36 19 -60 5z"/>
<path d="M5862 7318 c-18 -18 -15 -53 7 -79 16 -20 23 -22 47 -14 39 14 54 57
29 85 -20 22 -64 27 -83 8z"/>
<path d="M5601 7125 c-50 -53 -91 -103 -91 -112 0 -13 11 -15 64 -11 56 3 65
1 69 -14 7 -27 107 -26 114 1 4 16 12 18 74 13 44 -3 69 -1 69 6 0 12 -188
212 -200 212 -4 0 -49 -43 -99 -95z"/>
<path d="M5605 6873 c-45 -23 -76 -54 -92 -91 -17 -40 -12 -48 29 -57 27 -6
35 -3 64 29 31 34 37 36 92 36 52 0 63 -4 99 -35 23 -19 49 -35 60 -35 81 1
31 113 -69 154 -48 20 -144 20 -183 -1z"/>
<path d="M2843 8012 c-35 -3 -44 -7 -49 -27 -3 -13 -4 -32 -2 -42 3 -17 20
-18 288 -18 l285 0 0 40 c0 38 -1 40 -40 47 -38 6 -393 6 -482 0z"/>
<path d="M2802 7798 c-20 -20 -15 -66 9 -78 14 -8 104 -10 280 -8 277 3 278 3
279 54 0 42 -11 44 -290 44 -194 0 -269 -3 -278 -12z"/>
<path d="M2806 7594 c-19 -18 -21 -60 -4 -70 14 -9 544 -7 559 1 13 9 11 59
-3 73 -9 9 -84 12 -274 12 -225 0 -265 -2 -278 -16z"/>
<path d="M2806 7394 c-19 -18 -21 -55 -4 -72 9 -9 84 -12 275 -12 249 0 264 1
283 20 21 21 18 46 -8 68 -12 9 -82 12 -273 12 -221 0 -260 -2 -273 -16z"/>
<path d="M6662 7223 c-44 -21 -90 -87 -98 -139 -16 -107 67 -204 175 -204 42
0 111 41 142 83 23 32 29 50 29 94 0 30 -6 66 -14 81 -45 87 -152 126 -234 85z
m126 -89 c44 -31 28 -44 -53 -44 -81 0 -96 13 -52 43 29 21 77 21 105 1z m-1
-140 c-15 -13 -39 -24 -51 -24 -22 0 -76 34 -76 48 0 4 35 5 77 4 l78 -4 -28
-24z"/>
<path d="M5038 6823 c-28 -32 -30 -58 -7 -86 26 -34 67 -36 97 -4 27 29 28 47
1 81 -24 31 -68 35 -91 9z"/>
<path d="M3480 6865 c-10 -13 -9 -15 9 -15 12 0 21 6 21 15 0 8 -4 15 -9 15
-5 0 -14 -7 -21 -15z"/>
<path d="M3095 4636 c-14 -20 -15 -72 -13 -396 3 -437 -7 -404 121 -398 64 3
81 7 93 23 11 15 14 87 14 397 0 438 12 398 -119 398 -74 0 -82 -2 -96 -24z"/>
<path d="M6167 4653 l-38 -4 3 -137 3 -137 92 -3 c83 -2 94 -1 113 18 20 20
21 31 18 130 -2 70 -8 114 -16 122 -13 13 -109 19 -175 11z"/>
<path d="M4439 3246 c-211 -57 -311 -283 -209 -474 61 -115 160 -175 290 -176
41 -1 94 3 116 7 41 8 42 7 79 -37 43 -53 40 -62 -29 -99 -63 -33 -163 -30
-241 6 -113 53 -196 52 -255 -3 -68 -64 -13 -147 60 -90 36 28 68 25 173 -16
85 -33 98 -36 168 -31 49 3 91 12 120 27 69 34 188 114 194 129 6 15 -8 40
-45 81 -12 14 -37 43 -56 66 l-34 41 45 79 c25 43 45 86 45 96 0 16 10 18 70
18 62 0 74 3 95 25 30 29 31 39 5 65 -16 16 -33 20 -93 20 l-73 0 -18 51 c-60
166 -238 261 -407 215z m134 -95 c20 -5 49 -16 62 -25 l26 -17 -96 -63 -95
-64 -42 15 c-39 13 -43 13 -55 -3 -30 -41 -14 -67 60 -94 27 -9 27 -10 27
-104 0 -109 1 -109 -85 -48 -80 56 -118 178 -82 265 46 108 161 165 280 138z
m173 -164 c19 -87 -5 -176 -63 -228 -46 -41 -56 -47 -96 -54 l-38 -7 3 117 3
117 79 48 c44 27 85 46 92 43 7 -2 16 -19 20 -36z"/>
<path d="M4945 3252 c-53 -6 -74 -62 -36 -96 17 -15 38 -17 166 -14 131 3 148
5 161 22 18 25 18 37 0 62 -12 16 -31 20 -138 24 -67 3 -136 4 -153 2z"/>
<path d="M5563 3226 c-71 -34 -138 -104 -175 -183 l-31 -65 -46 6 c-53 6 -120
-6 -132 -26 -14 -21 -10 -55 8 -69 10 -9 44 -14 92 -15 l75 -1 28 -61 c37 -84
103 -153 181 -188 86 -39 191 -39 271 0 59 29 130 100 153 154 51 122 23 284
-65 375 -61 64 -123 90 -222 94 -74 4 -91 1 -137 -21z m217 -97 c47 -28 81
-60 74 -70 -8 -14 -107 -10 -134 6 -86 49 -200 -37 -200 -150 0 -68 32 -94 72
-58 12 10 18 30 18 56 0 23 7 48 16 58 16 18 18 18 41 -1 13 -10 45 -22 70
-26 44 -6 45 -7 26 -23 -11 -9 -37 -38 -58 -65 l-39 -48 23 -19 c13 -11 27
-19 31 -19 18 0 94 65 113 98 29 48 29 62 4 62 -15 0 -18 3 -10 11 6 6 26 9
44 7 34 -3 34 -4 32 -50 -2 -61 -43 -131 -97 -166 -44 -28 -119 -39 -181 -28
-46 9 -121 76 -146 131 -49 107 2 238 116 298 45 24 142 22 185 -4z"/>
<path d="M4936 2698 c-21 -30 -20 -44 4 -68 17 -17 33 -20 125 -20 94 0 106 2
125 22 26 28 25 53 -2 72 -17 12 -49 16 -130 16 -99 0 -108 -2 -122 -22z"/>
<path d="M5273 2513 c-55 -38 -12 -97 70 -98 40 -1 69 -10 126 -40 101 -53
185 -59 286 -20 39 15 87 33 107 41 40 15 59 11 97 -18 41 -32 91 -18 91 24 0
40 -29 75 -79 97 -67 29 -90 27 -184 -15 -53 -24 -103 -38 -142 -41 -56 -5
-66 -2 -149 41 -76 39 -98 46 -145 45 -34 0 -65 -6 -78 -16z"/>
<path d="M4929 2389 c-74 -45 -177 -108 -230 -139 -53 -32 -124 -76 -157 -99
-74 -50 -76 -57 -71 -296 1 -93 2 -206 1 -250 l-2 -80 -51 3 c-61 5 -103 -11
-118 -44 -16 -35 -2 -55 61 -89 29 -15 86 -51 127 -78 41 -27 113 -72 160
-100 47 -27 111 -64 141 -82 204 -119 307 -175 324 -175 10 0 71 32 135 70
176 106 328 200 406 251 39 26 102 66 140 91 95 61 112 81 97 113 -15 33 -49
45 -122 45 l-59 0 -3 118 c-2 64 0 135 4 157 4 22 4 100 1 173 l-6 134 -41 26
c-198 126 -555 332 -576 332 -15 0 -84 -35 -161 -81z m316 -114 c83 -49 189
-111 238 -138 48 -28 87 -53 87 -56 0 -8 -436 -262 -459 -268 -9 -2 -57 18
-106 46 -50 28 -156 87 -238 133 -81 45 -146 86 -144 91 5 15 456 288 467 283
3 -2 73 -43 155 -91z m-419 -422 l244 -138 0 -93 0 -94 -42 25 c-24 13 -122
69 -218 124 -96 55 -188 106 -205 114 -30 14 -30 15 -33 107 -1 50 0 92 4 92
4 0 116 -62 250 -137z m782 45 l-3 -83 -60 -36 c-33 -20 -130 -79 -215 -132
l-155 -95 -3 76 c-2 41 -1 81 2 88 4 10 157 107 216 137 8 4 58 34 110 66 52
33 99 60 103 60 4 1 7 -36 5 -81z m-823 -318 c110 -62 219 -123 243 -137 l42
-24 0 -164 c0 -91 -2 -165 -5 -165 -3 0 -96 55 -208 121 -111 67 -221 131
-244 142 l-43 21 0 164 c0 90 3 161 8 159 4 -2 97 -55 207 -117z m825 -50 l0
-149 -67 -41 c-62 -37 -108 -66 -300 -190 -33 -22 -64 -40 -67 -40 -3 0 -6 72
-6 159 l0 159 48 30 c46 28 317 188 357 210 11 6 23 12 28 12 4 0 7 -67 7
-150z"/>
<path d="M4871 2151 c-15 -9 -11 -12 132 -99 38 -23 72 -42 78 -42 5 0 26 11
47 24 21 13 70 40 110 60 119 60 106 66 -140 66 -117 0 -219 -4 -227 -9z"/>
<path d="M5230 1390 c-18 -33 -3 -60 31 -60 32 0 57 35 46 64 -9 24 -64 21
-77 -4z"/>
<path d="M4331 2218 c-22 -56 50 -87 79 -35 14 26 14 29 -4 43 -30 22 -65 18
-75 -8z"/>
<path d="M5781 2221 c-21 -39 20 -82 60 -61 15 9 19 19 17 43 -3 28 -7 32 -35
35 -23 2 -34 -2 -42 -17z"/>
<path d="M6093 8882 l-32 -35 27 -33 c15 -18 32 -33 38 -33 7 -1 26 12 44 29
l32 30 -28 34 c-16 19 -34 36 -39 39 -6 2 -25 -11 -42 -31z"/>
<path d="M4055 8882 c-3 -11 -17 -24 -30 -30 -31 -14 -31 -23 -1 -49 13 -12
28 -29 34 -39 9 -16 13 -15 46 18 39 39 44 53 22 65 -7 4 -18 18 -25 31 -14
27 -37 29 -46 4z"/>
<path d="M3570 8565 c-8 -9 -25 -21 -37 -26 -27 -10 -43 -41 -25 -47 7 -2 12
-17 12 -34 0 -28 2 -30 30 -25 16 4 32 2 35 -3 13 -21 43 -10 48 18 3 15 9 39
13 55 4 18 2 27 -5 27 -7 0 -22 12 -34 26 -21 24 -24 25 -37 9z"/>
<path d="M6556 8531 c-31 -34 0 -91 48 -91 22 0 56 36 56 59 0 47 -71 69 -104
32z"/>
<path d="M8151 6597 c-5 -13 -21 -31 -35 -40 -33 -22 -33 -42 -1 -63 13 -9 27
-24 30 -35 8 -25 42 -24 50 1 4 11 17 28 31 36 31 21 30 31 -2 56 -14 12 -30
31 -34 44 -12 30 -28 31 -39 1z"/>
<path d="M1960 6586 c-5 -13 -18 -27 -29 -31 -34 -10 -32 -33 9 -75 37 -38 60
-50 60 -31 0 5 14 22 31 39 l31 30 -38 46 c-21 25 -42 46 -46 46 -5 0 -13 -11
-18 -24z"/>
<path d="M1756 6244 c-9 -8 -16 -22 -16 -29 0 -17 27 -45 44 -45 15 0 46 32
46 48 0 15 -29 42 -45 42 -7 0 -21 -7 -29 -16z"/>
<path d="M8358 6249 c-21 -12 -24 -49 -6 -67 17 -17 42 -15 62 7 19 21 13 47
-15 61 -21 12 -20 12 -41 -1z"/>
<path d="M1712 6098 c-34 -34 6 -91 47 -68 25 13 36 47 21 65 -15 18 -52 19
-68 3z"/>
<path d="M8384 6095 c-9 -23 4 -62 22 -69 22 -8 64 20 64 42 0 10 -5 23 -12
30 -17 17 -67 15 -74 -3z"/>
<path d="M8325 5263 c-32 -8 -45 -24 -45 -54 0 -46 30 -59 140 -59 106 0 140
13 140 55 0 42 -24 55 -103 55 -40 0 -81 2 -92 4 -11 2 -29 2 -40 -1z"/>
<path d="M1622 5248 c-20 -20 -14 -65 10 -82 17 -12 48 -16 125 -16 91 0 105
2 124 21 22 22 20 66 -4 81 -20 13 -242 9 -255 -4z"/>
<path d="M3070 3203 c-48 -49 -187 -190 -309 -315 -210 -215 -221 -228 -221
-265 0 -50 27 -84 354 -452 157 -177 268 -293 284 -299 15 -5 36 -6 48 -2 19
8 161 149 294 295 155 170 216 228 260 247 60 26 79 44 106 103 69 146 -30
315 -184 315 -45 0 -51 3 -82 43 -19 23 -53 62 -75 87 -185 202 -290 312 -305
320 -10 6 -33 10 -51 10 -27 0 -46 -14 -119 -87z m85 -425 l7 -128 -48 -1
c-27 0 -130 -4 -229 -8 -189 -8 -208 -7 -203 14 2 8 104 118 228 246 l225 232
6 -114 c3 -63 10 -171 14 -241z m120 320 c14 -18 65 -75 112 -126 97 -104 213
-242 213 -252 0 -4 -10 -16 -23 -28 -21 -19 -42 -24 -162 -33 -76 -5 -141 -6
-146 -2 -6 7 -39 378 -39 446 0 36 12 34 45 -5z m491 -402 c28 -28 34 -41 34
-79 0 -61 -33 -109 -85 -122 -54 -13 -50 -11 -167 -138 -56 -62 -149 -161
-206 -222 l-104 -110 5 105 c10 178 28 414 32 418 2 2 74 8 160 13 203 12 239
30 252 129 7 51 32 53 79 6z m-608 -155 c14 -8 13 -22 -3 -176 -2 -16 -6 -91
-10 -165 l-8 -135 -100 105 c-123 129 -297 331 -297 346 0 7 62 14 183 21 100
5 191 10 202 11 11 1 26 -2 33 -7z"/>
<path d="M3310 3016 c0 -2 8 -10 18 -17 15 -13 16 -12 3 4 -13 16 -21 21 -21
13z"/>
<path d="M2560 3262 c-48 -6 -67 -64 -32 -95 15 -14 41 -17 139 -17 103 0 122
3 136 18 20 22 22 52 5 74 -10 13 -36 17 -118 20 -58 2 -116 2 -130 0z"/>
<path d="M6375 3263 c-41 -6 -55 -20 -55 -54 0 -37 33 -59 90 -59 54 0 90 22
90 55 0 28 -24 55 -50 55 -10 0 -24 2 -32 3 -7 2 -26 2 -43 0z"/>
<path d="M3632 3248 c-20 -20 -14 -65 10 -82 12 -9 43 -16 68 -16 74 0 108 38
80 91 -9 16 -22 19 -78 19 -40 0 -73 -5 -80 -12z"/>
<path d="M7433 3234 c-15 -24 -15 -29 -2 -53 14 -25 19 -26 102 -29 48 -2 96
2 107 8 29 15 36 56 15 80 -16 17 -31 20 -111 20 -90 0 -94 -1 -111 -26z"/>
<path d="M1816 3221 c-36 -40 7 -100 58 -81 11 4 26 15 33 26 33 50 -50 100
-91 55z"/>
<path d="M8246 3224 c-41 -40 6 -108 62 -88 16 5 31 21 37 38 8 24 6 31 -14
47 -28 23 -64 24 -85 3z"/>
<path d="M6802 3210 c-240 -63 -434 -260 -497 -505 -35 -139 -11 -337 59 -480
186 -377 691 -484 1026 -216 127 101 206 242 237 421 12 69 13 102 4 172 -24
189 -78 305 -196 424 -89 89 -168 139 -287 178 -97 33 -235 35 -346 6z m108
-97 c1 -10 2 -82 3 -159 l2 -141 -75 -6 c-41 -3 -76 -4 -79 -2 -6 6 28 169 50
241 17 56 23 65 52 73 46 13 47 13 47 -6z m169 -2 c11 -11 25 -37 30 -58 16
-56 52 -235 49 -239 -2 -1 -35 -5 -74 -8 l-71 -6 -7 92 c-3 50 -6 124 -6 165
l0 73 30 0 c17 0 39 -9 49 -19z m-374 -110 c-9 -27 -21 -82 -28 -121 l-12 -72
-113 -2 c-128 -2 -124 -7 -63 83 42 62 107 121 181 164 54 32 60 23 35 -52z
m536 53 c44 -22 110 -85 102 -97 -3 -6 -1 -7 5 -3 10 6 112 -116 112 -135 0
-8 -156 -23 -186 -17 -14 2 -21 18 -30 73 -10 62 -24 121 -40 178 -7 21 -1 21
37 1z m-594 -342 c9 -6 12 -52 12 -170 l-1 -162 -129 0 c-114 0 -130 2 -137
18 -4 9 -7 79 -7 155 0 172 -4 167 144 167 58 0 112 -4 118 -8z m518 -14 c6
-5 10 -72 10 -161 l0 -152 -89 -3 c-78 -2 -88 -1 -82 13 3 9 6 32 6 51 0 31 2
34 28 32 49 -4 62 19 46 80 -5 17 -14 22 -40 22 -31 0 -34 3 -34 30 0 23 -6
33 -24 40 -41 15 -66 2 -66 -36 0 -31 -2 -33 -37 -36 l-38 -3 0 -50 0 -50 35
0 c32 0 35 -3 40 -35 4 -20 10 -41 14 -48 5 -9 -16 -12 -88 -12 l-96 0 0 163
c0 90 3 167 7 171 10 10 396 -5 408 -16z m342 -5 c27 -34 29 -287 2 -304 -7
-4 -63 -8 -125 -8 l-114 -2 0 119 c0 66 -3 140 -6 165 -6 44 -6 46 22 49 66 8
209 -4 221 -19z m-842 -450 c3 -27 15 -88 27 -136 11 -49 18 -90 16 -92 -7 -7
-113 66 -157 108 -51 49 -101 123 -101 149 0 16 10 18 104 18 l104 0 7 -47z
m233 41 c22 -6 22 -9 22 -159 0 -167 -2 -171 -57 -156 -25 6 -31 17 -61 104
-18 53 -35 123 -39 157 l-6 60 59 0 c32 0 69 -3 82 -6z m265 -2 c6 -11 -20
-175 -38 -235 -19 -66 -27 -74 -80 -79 l-40 -3 -3 120 c-2 66 0 139 3 162 l6
42 74 0 c41 0 76 -3 78 -7z m217 -14 l0 -22 20 22 c21 23 46 28 68 14 17 -11
-50 -113 -107 -165 -42 -38 -132 -99 -137 -94 -2 1 3 39 11 82 8 44 14 101 15
126 0 25 3 49 7 52 3 4 33 7 65 7 53 0 58 -2 58 -22z"/>
<path d="M7350 2931 c0 -6 4 -13 10 -16 6 -3 7 1 4 9 -7 18 -14 21 -14 7z"/>
<path d="M1936 2981 c-37 -41 14 -97 60 -66 27 17 28 23 14 59 -12 32 -49 35
-74 7z"/>
<path d="M8146 2984 c-23 -23 -20 -51 9 -70 23 -15 27 -15 50 0 30 19 32 46 7
69 -23 21 -46 22 -66 1z"/>
<path d="M2481 2971 c-27 -27 -26 -46 0 -72 20 -20 29 -21 140 -17 69 3 124
10 133 17 21 17 26 48 11 68 -11 15 -32 18 -138 21 -116 3 -127 2 -146 -17z"/>
<path d="M3703 2981 c-30 -13 -38 -47 -19 -76 15 -23 22 -25 101 -25 72 0 88
3 105 20 24 24 25 39 6 65 -12 16 -29 20 -93 22 -43 2 -88 -1 -100 -6z"/>
<path d="M7572 2974 c-12 -8 -22 -23 -22 -33 0 -33 32 -48 113 -56 63 -5 82
-4 102 9 35 23 34 69 0 84 -39 18 -166 15 -193 -4z"/>
<path d="M8151 2751 c-26 -26 -27 -53 -3 -74 25 -22 48 -21 72 3 23 23 25 38
7 61 -21 28 -54 32 -76 10z"/>
<path d="M1920 2740 c-23 -42 17 -88 66 -76 27 7 43 50 27 75 -6 9 -26 17 -46
19 -28 2 -38 -1 -47 -18z"/>
<path d="M2457 2252 c-10 -10 -17 -28 -17 -40 0 -36 37 -52 117 -52 60 0 77 4
93 20 26 26 25 55 -2 74 -34 24 -169 22 -191 -2z"/>
<path d="M3665 2254 c-9 -9 -15 -28 -13 -43 5 -40 40 -52 146 -49 79 3 96 6
108 22 19 27 18 42 -6 66 -17 17 -33 20 -119 20 -79 0 -103 -3 -116 -16z"/>
<path d="M2486 1965 c-27 -27 -30 -56 -8 -77 18 -19 32 -20 188 -19 140 1 171
4 186 18 24 21 23 48 -2 73 -18 18 -33 20 -184 20 -133 0 -167 -3 -180 -15z"/>
<path d="M3589 1973 c-34 -9 -42 -78 -10 -97 19 -12 191 -8 206 4 23 19 19 66
-7 84 -21 15 -145 21 -189 9z"/>
<path d="M7480 1967 c-19 -10 -25 -20 -25 -47 0 -44 28 -60 110 -60 78 0 109
16 113 57 5 45 -26 63 -108 63 -36 0 -76 -6 -90 -13z"/>
<path d="M3386 1444 c-20 -20 -21 -68 0 -84 9 -8 53 -15 112 -17 120 -5 146 6
150 60 3 32 0 38 -23 47 -14 6 -71 10 -125 10 -76 0 -102 -4 -114 -16z"/>
<path d="M6548 1443 c-25 -30 -28 -51 -9 -75 16 -19 30 -23 95 -26 126 -7 176
11 176 63 0 42 -34 55 -146 55 -84 0 -103 -3 -116 -17z"/>
</g>
</svg>
